PathFileType	4	(X/Y/Z)	/Users/niels/Desktop/University/Third Semester/Perception and Action/Exam/Gymnastics Motion Tracking/Code for Gym Tracking/Scripts/Analyzed Data/Start Salto/st_salto_bad_id9_3_Sports2D/st_salto_bad_id9_3_Sports2D_px_person00.trc
DataRate	CameraRate	NumFrames	NumMarkers	Units	OrigDataRate	OrigDataStartFrame	OrigNumFrames
29.825581395348838	29.825581395348838	11	22	m	29.825581395348838	21	172
Frame#	Time	Hip			RHip			RKnee			RAnkle			RBigToe			RSmallToe			RHeel			LHip			LKnee			LAnkle			LBigToe			LSmallToe			LHeel			Neck			Head			Nose			RShoulder			RElbow			RWrist			LShoulder			LElbow			LWrist		
		X1	Y1	Z1	X2	Y2	Z2	X3	Y3	Z3	X4	Y4	Z4	X5	Y5	Z5	X6	Y6	Z6	X7	Y7	Z7	X8	Y8	Z8	X9	Y9	Z9	X10	Y10	Z10	X11	Y11	Z11	X12	Y12	Z12	X13	Y13	Z13	X14	Y14	Z14	X15	Y15	Z15	X16	Y16	Z16	X17	Y17	Z17	X18	Y18	Z18	X19	Y19	Z19	X20	Y20	Z20	X21	Y21	Z21	X22	Y22	Z22
21	0.704093567251462	0.3942617590852824	-0.5586290347297969	0.0	0.3749856045551946	-0.5635200084825199	0.0	0.4761255425733321	-0.6753064048711787	0.0	0.5191011343413187	-0.8239236319058076	0.0	0.5831395514146948	-0.8339020811206188	0.0	0.5645790960485194	-0.8423271392977922	0.0	0.5137780815098771	-0.8407630519161025	0.0	0.4244642151927631	-0.5607871066923995	0.0	0.5093796868650513	-0.6648804005871032	0.0	0.5568259125587676	-0.8048063145335166	0.0	0.6178014288028956	-0.8164406058263142	0.0	0.6131012783720841	-0.8121398578818207	0.0	0.5529163864593384	-0.8245828719962708	0.0	0.44232619060234696	-0.3860818321963106	0.0	0.47282275987803707	-0.3155864640897931	0.0	0.48427714789905063	-0.3566606987924327	0.0	0.4053932960814306	-0.3840550337414835	0.0	0.45022220492345344	-0.4126490944920059	0.0	0.5081023140822858	-0.3441704364036707	0.0	0.46868329950465126	-0.4274617330991085	0.0	0.5333382063633336	-0.47208455308050606	0.0	0.5654864649195512	-0.41130957694390957	0.0
22	0.7376218323586745	0.4212376245200269	-0.5677778686756244	0.0	0.40208956864382683	-0.5733265904694003	0.0	0.4959774690166679	-0.6888282810685402	0.0	0.5263274234154317	-0.8368926516640657	0.0	0.5865323378685898	-0.8466802873849826	0.0	0.5674706430100467	-0.8539376873037972	0.0	0.5202069475809206	-0.8517296201584215	0.0	0.44999507272204314	-0.5708650021082916	0.0	0.5286544613299465	-0.6787088230028334	0.0	0.5641462113565981	-0.8189871160142946	0.0	0.6184649568403945	-0.8328960215608846	0.0	0.6145066641056072	-0.8283904692096334	0.0	0.5587295682902739	-0.8361571536811979	0.0	0.461204427209164	-0.3900267735645396	0.0	0.4872994728164316	-0.3192250685772363	0.0	0.498636507800255	-0.35786696495791825	0.0	0.42686551675724144	-0.38962750771198845	0.0	0.48578312144229185	-0.3999096964428161	0.0	0.5260260048959721	-0.32473679918185766	0.0	0.48925404087516955	-0.42990090435963235	0.0	0.5621026133631826	-0.4618340116005638	0.0	0.583458679913945	-0.3921933815176074	0.0
23	0.7711500974658869	0.4455347612029024	-0.5745920907690261	0.0	0.42644442105088554	-0.5798873964057948	0.0	0.5140275206854853	-0.6991300183865492	0.0	0.5306622363221337	-0.845941939661492	0.0	0.5871903181075309	-0.856274945770086	0.0	0.5683029203836332	-0.8621763101559519	0.0	0.523576155142749	-0.8593090481294836	0.0	0.47302470364277016	-0.5780866808675752	0.0	0.545757479066466	-0.6890521470069654	0.0	0.5673265797182628	-0.8296424511447554	0.0	0.6155067644577656	-0.845539419044351	0.0	0.6117219325389717	-0.8410777586124966	0.0	0.5601613925818867	-0.8445622383136304	0.0	0.4792690387717067	-0.3932226720560629	0.0	0.5042639271357454	-0.32103827841761273	0.0	0.5146759774599241	-0.3589604245561362	0.0	0.44745819848072377	-0.3934780184794894	0.0	0.5175000993620331	-0.3876844207703751	0.0	0.5420075597936417	-0.3102231922332721	0.0	0.5087176075337158	-0.4299958932851801	0.0	0.5876278683255584	-0.4508664213391136	0.0	0.600417170136278	-0.3764686833058096	0.0
24	0.8046783625730994	0.4671007559974529	-0.5786659693162239	0.0	0.448067339990153	-0.5828961029912382	0.0	0.5301894044640328	-0.705976024669309	0.0	0.533215531775322	-0.851138321993159	0.0	0.5867397970588981	-0.8631446632097433	0.0	0.5686863662387462	-0.8675827508088316	0.0	0.5249124272464564	-0.8636001975615141	0.0	0.4935434725466918	-0.5821288613646627	0.0	0.5605396867148106	-0.6960691942676532	0.0	0.5680713586960312	-0.8366531274825304	0.0	0.6115478605743971	-0.8540043422641861	0.0	0.6074893563821839	-0.849739248949817	0.0	0.5591723202392098	-0.8498021008478958	0.0	0.49675709215420266	-0.39524963053692425	0.0	0.523589508258659	-0.3209170008806589	0.0	0.5328233318634941	-0.3596912183800207	0.0	0.4672972840787149	-0.3951482279813843	0.0	0.5454346571278061	-0.3769452012382355	0.0	0.5585416302092584	-0.2998875075996842	0.0	0.527203029384033	-0.4280456922938523	0.0	0.6100995042934128	-0.43991551426813497	0.0	0.6176545712415212	-0.3638080178700664	0.0
25	0.838206627680312	0.48579955005392067	-0.5799407906799372	0.0	0.46678766976863745	-0.582802197729913	0.0	0.5441878676998712	-0.7092963196801747	0.0	0.5347065301115722	-0.8528359648546361	0.0	0.5860817152261758	-0.8676017723966708	0.0	0.5693740648162376	-0.8706184680892837	0.0	0.524926266938084	-0.8648303073794205	0.0	0.5112899271826158	-0.5832523630005436	0.0	0.5726691694664205	-0.7000983286588642	0.0	0.5675701300054742	-0.8404291440862786	0.0	0.6080060641432333	-0.8587777095638713	0.0	0.6035943839875832	-0.8547613978341879	0.0	0.557048729380466	-0.8523239213017721	0.0	0.5135847916786551	-0.395544136500781	0.0	0.5439175525614858	-0.31919352176757004	0.0	0.5520643615106913	-0.35951988458585576	0.0	0.48604065423111115	-0.3945084100715152	0.0	0.5697884371784244	-0.3680564258239959	0.0	0.576868920652148	-0.29264616975491875	0.0	0.5446878930235893	-0.4245701498152873	0.0	0.6297836381004188	-0.42943311449911753	0.0	0.635892784774869	-0.35359264345171354	0.0
26	0.8717348927875244	0.5016129872807596	-0.5786065895055895	0.0	0.4826086689068386	-0.580371707578617	0.0	0.5556722574523917	-0.7092583902586168	0.0	0.535599912941876	-0.85167346093634	0.0	0.5852781166007495	-0.8697040099441444	0.0	0.5701368044250936	-0.8715574826135056	0.0	0.5242774227256848	-0.8634613644776937	0.0	0.5260190456394466	-0.581968618851153	0.0	0.5818097177281923	-0.7014309387151757	0.0	0.5665607920111249	-0.8415715743750454	0.0	0.6054025555814306	-0.860696143773286	0.0	0.6008965514961954	-0.8568994572278423	0.0	0.554583997195649	-0.8527678387796438	0.0	0.5295107652323778	-0.3936357895558066	0.0	0.5634814123149469	-0.31627923894014026	0.0	0.5708089702325494	-0.35777542145207203	0.0	0.5032243851167334	-0.39167141865660887	0.0	0.5908761526878817	-0.36096678681343075	0.0	0.597246894287393	-0.2874984387119125	0.0	0.56103379054409	-0.42005331088709413	0.0	0.6469690376236825	-0.41967195303863447	0.0	0.655337175424675	-0.34537442741739066	0.0
27	0.9052631578947369	0.5148665173056024	-0.5750483010782688	0.0	0.4960008928101043	-0.5763070192768058	0.0	0.564503718243954	-0.7063418777101514	0.0	0.5362195081619208	-0.8484883757590618	0.0	0.583847868694555	-0.869628902735444	0.0	0.5700140492607855	-0.8707595309193273	0.0	0.5235976650428052	-0.8602421984811861	0.0	0.5379176492453737	-0.5787803630475541	0.0	0.5879678339238477	-0.7003080002280606	0.0	0.5655445576052996	-0.8406177811412502	0.0	0.6038837461266529	-0.8605916106953699	0.0	0.5996139524057675	-0.8569175943872067	0.0	0.5523761387990561	-0.8516918046349865	0.0	0.5443980995400555	-0.3893268655821397	0.0	0.5807510761769731	-0.3123199917378157	0.0	0.58788127519412	-0.35406717140394917	0.0	0.5187269486688816	-0.38689215776027763	0.0	0.6091960942225053	-0.35539992948002863	0.0	0.6195010029365856	-0.2836613852158842	0.0	0.5761022027186291	-0.4148048251957076	0.0	0.6620243245954959	-0.4107951077584865	0.0	0.6758337625796628	-0.33889037065396665	0.0
28	0.9387914230019494	0.5261676438541232	-0.5697722299938645	0.0	0.5077190569770935	-0.5711087524904201	0.0	0.5708233962087597	-0.7012960223172331	0.0	0.53670540806993	-0.8440544499452565	0.0	0.5813194675050642	-0.8679698655606556	0.0	0.5679857989388353	-0.8688374505208346	0.0	0.523225167007254	-0.8560272867248804	0.0	0.5476456261967239	-0.5741228418962914	0.0	0.5916006214356038	-0.6970508000535451	0.0	0.5648953697406045	-0.8379180607364661	0.0	0.6033656957614928	-0.8590901464236825	0.0	0.5995578955598868	-0.855405947662821	0.0	0.5509649847260252	-0.8494247281760582	0.0	0.5583089715523413	-0.3827237009246609	0.0	0.5949236190144804	-0.30715618709212406	0.0	0.6028777051277913	-0.3485081462006113	0.0	0.5328383995017093	-0.3804561701467657	0.0	0.6254329930517808	-0.3509658703187074	0.0	0.6433586267662001	-0.2805865405448919	0.0	0.5898176578918358	-0.40892450645969786	0.0	0.6753349392834261	-0.4029465748881569	0.0	0.6970316306186236	-0.3339308436049461	0.0
29	0.9723196881091618	0.5361738909551294	-0.5632778948057455	0.0	0.5184067486448982	-0.5650179598935384	0.0	0.5749384810836371	-0.694979904491774	0.0	0.5369517104392036	-0.8388681383086826	0.0	0.5776315692625204	-0.8655614507992323	0.0	0.563722853537649	-0.8664616600324457	0.0	0.5230496545027188	-0.8514669799108738	0.0	0.5560532913439743	-0.5683235580063059	0.0	0.5934694546961365	-0.6921796312128996	0.0	0.5648267748136921	-0.8336870419021932	0.0	0.6034565851756503	-0.8566236227933449	0.0	0.6003060358405259	-0.8528082445196301	0.0	0.5507268444997419	-0.846146840498855	0.0	0.5714345788073566	-0.3743012296776132	0.0	0.6064887557615936	-0.3005909930002233	0.0	0.6160847868205762	-0.3415623228036382	0.0	0.5459945361683103	-0.3726642064674659	0.0	0.6404200618796115	-0.34724201284773626	0.0	0.6684497146150208	-0.27802199403624256	0.0	0.6021598896851488	-0.4023624397537412	0.0	0.6872262599682313	-0.39626595494547134	0.0	0.7184411831533959	-0.33040099668899264	0.0
30	1.0058479532163742	0.5453745002324679	-0.5558833494533483	0.0	0.5284169821536445	-0.5579601341670143	0.0	0.5772305676313016	-0.6880616791256325	0.0	0.5367794859198198	-0.8330944982919546	0.0	0.5732160753446026	-0.8629971692943942	0.0	0.5579406652280547	-0.8639890812973792	0.0	0.5227380700433147	-0.8467218952680017	0.0	0.5638471522312698	-0.5614909990555825	0.0	0.5943451564069131	-0.6862791493075625	0.0	0.5653190648897153	-0.8280965104869329	0.0	0.6036696025113383	-0.853476702132402	0.0	0.601447895428301	-0.8494515738090167	0.0	0.551589139885305	-0.8419422694050309	0.0	0.5840017935886228	-0.364796983403641	0.0	0.6171501131782353	-0.29263035377548885	0.0	0.6283167674114108	-0.33384876780736145	0.0	0.5586101313153746	-0.3638304454639371	0.0	0.6550635689396764	-0.34387055317939824	0.0	0.6943198966712095	-0.27608523085779246	0.0	0.6130815006974352	-0.39501852324610814	0.0	0.697979910524382	-0.39084515763560035	0.0	0.7394729107106522	-0.32850979111198997	0.0
31	1.0393762183235868	0.5541015649997368	-0.5476117788140547	0.0	0.5379753662812329	-0.5496264292601886	0.0	0.5781162523604135	-0.6807516893710335	0.0	0.5362274804844592	-0.8266810344816001	0.0	0.5688321437760702	-0.8603522116496527	0.0	0.552065646617618	-0.8613372877247221	0.0	0.5221296181540808	-0.8414753054856622	0.0	0.5714905573472785	-0.5534809604927443	0.0	0.5947751876314014	-0.6796976824743145	0.0	0.5661755506453322	-0.8213152343470504	0.0	0.6038687074641683	-0.8497658083753369	0.0	0.602844323016183	-0.845497239548888	0.0	0.5530100823481017	-0.8367785545746855	0.0	0.5963092622083833	-0.35483686993843744	0.0	0.6288601084304248	-0.28349170055076983	0.0	0.6406695268962476	-0.32593778201703283	0.0	0.5711618517524645	-0.35415541094236397	0.0	0.6701960560530653	-0.34057629846899246	0.0	0.7206674261170805	-0.27519644743267807	0.0	0.6226507615461101	-0.38676659863092183	0.0	0.7079888733918889	-0.3865755152776492	0.0	0.7597568250917206	-0.3286060966500304	0.0
